<?xml version="1.0" encoding="utf-8"?>
<!-- Generator: Adobe Illustrator 17.0.0, SVG Export Plug-In . SVG Version: 6.00 Build 0)  -->
<!DOCTYPE svg PUBLIC "-//W3C//DTD SVG 1.1//EN" "http://www.w3.org/Graphics/SVG/1.1/DTD/svg11.dtd">
<svg version="1.1" id="Layer_1" xmlns="http://www.w3.org/2000/svg" xmlns:xlink="http://www.w3.org/1999/xlink" x="0px" y="0px"
	 width="255px" height="60px" viewBox="0 0 255 60" enable-background="new 0 0 255 60" xml:space="preserve">
<g>
	<g>
		<circle id="Oval_11_" fill="#32B8C9" cx="30" cy="30" r="30"/>
		<linearGradient id="SVGID_1_" gradientUnits="userSpaceOnUse" x1="16.8549" y1="49.2374" x2="33.3861" y2="25.1823">
			<stop  offset="0" style="stop-color:#000000;stop-opacity:0"/>
			<stop  offset="1" style="stop-color:#000000"/>
		</linearGradient>
		<path opacity="0.5" fill="url(#SVGID_1_)" d="M30.57,13.482h-0.911c-2.496,0-4.503,0.709-5.966,2.106
			c-0.271,0.259-0.509,0.549-0.731,0.854l-0.015,0.002L3.715,44.464c4.508,8.174,12.717,14.014,22.368,15.273l11.333-16.512l0-0.009
			c0.881-1.318,1.33-3.009,1.33-5.054V21.75c0-2.687-0.744-4.76-2.211-6.162C35.072,14.191,33.065,13.482,30.57,13.482z"/>
		<linearGradient id="SVGID_2_" gradientUnits="userSpaceOnUse" x1="12.4213" y1="51.827" x2="21.7033" y2="38.1163">
			<stop  offset="0" style="stop-color:#000000;stop-opacity:0"/>
			<stop  offset="1" style="stop-color:#000000"/>
		</linearGradient>
		<path opacity="0.5" fill="url(#SVGID_2_)" d="M19.49,45.39l-0.011-0.008c0.195-0.329,0.315-0.709,0.315-1.119
			c0-1.219-0.992-2.21-2.21-2.21c-0.701,0-1.319,0.334-1.724,0.844l-0.012-0.008l-0.092,0.134c-0.002,0.004-0.005,0.007-0.007,0.011
			l-6.147,8.955c1.082,1.004,2.237,1.931,3.459,2.768l6.354-9.258c0.001-0.001,0.001-0.002,0.002-0.003L19.49,45.39z"/>
		<g>
			<circle fill="#FFFFFF" cx="17.583" cy="44.264" r="2.21"/>
			<path fill="#FFFFFF" d="M36.535,15.588c-1.463-1.397-3.47-2.106-5.966-2.106h-0.911c-2.496,0-4.503,0.709-5.966,2.106
				c-1.467,1.402-2.211,3.476-2.211,6.162v16.413c0,2.659,0.752,4.725,2.233,6.139c1.476,1.412,3.475,2.129,5.943,2.129h0.911
				c2.468,0,4.468-0.716,5.943-2.128c1.482-1.416,2.234-3.482,2.234-6.14V21.75C38.747,19.063,38.003,16.99,36.535,15.588z
				 M26.393,31.57V20.886c0-0.802,0.298-1.479,0.91-2.067c0.62-0.593,1.39-0.881,2.356-0.881h0.911c0.964,0,1.735,0.288,2.355,0.879
				c0.574,0.553,0.872,1.18,0.908,1.914L26.393,31.57z M33.836,28.386v10.645c0,0.801-0.298,1.476-0.91,2.063
				c-0.622,0.593-1.393,0.881-2.357,0.881h-0.911c-0.966,0-1.736-0.288-2.356-0.881c-0.573-0.547-0.87-1.172-0.906-1.907
				L33.836,28.386z"/>
		</g>
	</g>
	<g>
		<path fill="#FFFFFF" d="M81.191,18.375c-3.421,0-6.788,0.355-10.293,1.086c-0.553,0.115-0.95,0.603-0.95,1.169v28.748
			c0,0.66,0.534,1.194,1.194,1.194h2.884c0.66,0,1.194-0.534,1.194-1.194v-8.553c2.48,0.377,4.002,0.377,6.141,0.377
			c6.445,0,10.946-4.641,10.946-11.302C92.211,22.899,87.848,18.375,81.191,18.375z M75.262,23.654
			c1.993-0.274,3.674-0.389,5.59-0.389c3.957,0,6.226,2.455,6.226,6.735c0,3.775-2.417,6.311-6.014,6.311l-0.726,0.001
			c-1.588,0-2.859-0.031-5.076-0.401V23.654z"/>
		<path fill="#FFFFFF" d="M106.494,18.248c-7.019,0-11.922,4.798-11.922,11.667c0,6.919,4.902,11.752,11.922,11.752
			c7.019,0,11.922-4.832,11.922-11.752C118.415,23.046,113.513,18.248,106.494,18.248z M106.494,36.65
			c-3.927,0-6.565-2.707-6.565-6.735c0-3.952,2.638-6.608,6.565-6.608c3.988,0,6.565,2.594,6.565,6.608
			C113.059,33.944,110.421,36.65,106.494,36.65z"/>
		<path fill="#FFFFFF" d="M123.75,16.396c1.858,0,3.314-1.437,3.314-3.272c0-1.858-1.456-3.314-3.314-3.314
			s-3.314,1.456-3.314,3.314C120.436,14.959,121.892,16.396,123.75,16.396z"/>
		<path fill="#FFFFFF" d="M125.192,19.011h-2.883c-0.66,0-1.194,0.534-1.194,1.194v19.589c0,0.66,0.534,1.194,1.194,1.194h2.883
			c0.66,0,1.194-0.534,1.194-1.194V20.205C126.386,19.546,125.851,19.011,125.192,19.011z"/>
		<path fill="#FFFFFF" d="M142.66,18.375c-3.62,0-8.034,0.437-10.985,1.088c-0.547,0.121-0.937,0.606-0.937,1.166v19.165
			c0,0.66,0.534,1.194,1.194,1.194h2.883c0.66,0,1.194-0.534,1.194-1.194V23.852c1.919-0.281,3.924-0.417,6.099-0.417
			c2.866,0,4.445,1.714,4.445,4.827v11.533c0,0.66,0.534,1.194,1.194,1.194h2.884c0.66,0,1.194-0.534,1.194-1.194V27.583
			C151.826,21.904,148.314,18.375,142.66,18.375z"/>
		<path fill="#FFFFFF" d="M170.169,37.276c-0.05-0.314-0.223-0.596-0.481-0.782c-0.258-0.186-0.579-0.262-0.894-0.209
			c-1.305,0.217-2.393,0.323-3.323,0.323c-2.02,0-3.046-0.602-3.046-3.894v-8.685h5.802c0.659,0,1.194-0.534,1.194-1.194v-2.629
			c0-0.66-0.535-1.194-1.194-1.194h-5.802V11.98c0-0.66-0.535-1.194-1.194-1.194h-2.884c-0.66,0-1.194,0.534-1.194,1.194v7.032
			h-3.301c-0.66,0-1.194,0.534-1.194,1.194v2.629c0,0.66,0.534,1.194,1.194,1.194h3.301v8.94c0,5.744,2.642,8.656,7.851,8.656
			c1.887,0,3.09-0.206,4.649-0.585c0.604-0.147,0.994-0.733,0.897-1.346L170.169,37.276z"/>
		<path fill="#FFFFFF" d="M190.892,36.056h-10.15l10.701-13.366c0.169-0.212,0.262-0.475,0.262-0.746v-1.738
			c0-0.66-0.535-1.194-1.194-1.194h-15.985c-0.659,0-1.194,0.534-1.194,1.194v2.544c0,0.66,0.535,1.194,1.194,1.194h9.515
			l-10.871,13.579c-0.169,0.212-0.262,0.475-0.262,0.746v1.526c0,0.66,0.535,1.194,1.194,1.194h16.791
			c0.659,0,1.194-0.534,1.194-1.194V37.25C192.086,36.591,191.551,36.056,190.892,36.056z"/>
		<path fill="#FFFFFF" d="M204.458,18.375c-6.694,0-11.37,4.763-11.37,11.582c0,6.978,4.739,11.667,11.794,11.667
			c3.089,0,5.399-0.609,8.097-1.406c0.591-0.175,0.952-0.77,0.833-1.375l-0.466-2.374c-0.063-0.322-0.256-0.604-0.533-0.779
			c-0.278-0.175-0.616-0.23-0.932-0.148c-2.721,0.691-4.629,1.066-6.914,1.066c-3.123,0-5.337-1.586-6.138-4.311h14.873
			c0.597,0,1.102-0.441,1.183-1.032c0.138-1.013,0.138-1.422,0.138-2.418C214.976,22.583,210.731,18.375,204.458,18.375z
			 M209.896,27.619h-11.212c0.678-2.831,2.779-4.481,5.816-4.481C207.474,23.138,209.425,24.789,209.896,27.619z"/>
		<path fill="#FFFFFF" d="M229.729,18.545c-3.519,0-7.256,0.349-11.107,1.036c-0.57,0.101-0.984,0.597-0.984,1.175v19.038
			c0,0.66,0.535,1.194,1.194,1.194h2.883c0.659,0,1.194-0.534,1.194-1.194v-15.72c2.456-0.246,4.534-0.301,6.82-0.301
			c0.659,0,1.194-0.534,1.194-1.194v-2.841C230.922,19.079,230.388,18.545,229.729,18.545z"/>
		<path fill="#FFFFFF" d="M242.956,18.248c-7.019,0-11.921,4.798-11.921,11.667c0,6.919,4.902,11.752,11.921,11.752
			c7.019,0,11.921-4.832,11.921-11.752C254.877,23.046,249.976,18.248,242.956,18.248z M242.956,36.65
			c-3.927,0-6.565-2.707-6.565-6.735c0-3.952,2.638-6.608,6.565-6.608c3.988,0,6.565,2.594,6.565,6.608
			C249.522,33.944,246.883,36.65,242.956,36.65z"/>
	</g>
</g>
</svg>
