<?xml version="1.0" encoding="utf-8"?>
<!-- Generator: Adobe Illustrator 17.0.0, SVG Export Plug-In . SVG Version: 6.00 Build 0)  -->
<!DOCTYPE svg PUBLIC "-//W3C//DTD SVG 1.1//EN" "http://www.w3.org/Graphics/SVG/1.1/DTD/svg11.dtd">
<svg version="1.1" id="Layer_1" xmlns="http://www.w3.org/2000/svg" xmlns:xlink="http://www.w3.org/1999/xlink" x="0px" y="0px"
	 width="100px" height="100px" viewBox="0 0 100 100" enable-background="new 0 0 100 100" xml:space="preserve">
<g>
	<circle fill="#6BB27F" cx="50" cy="50" r="50"/>
	<circle fill="#FFFFFF" cx="31.003" cy="73.773" r="2.821"/>
	<g>
		<path fill="#FFFFFF" d="M63.524,63.677c0,4.205-1.153,7.408-3.456,9.609c-2.306,2.207-5.407,3.308-9.309,3.308h-1.518
			c-3.902,0-7.003-1.101-9.309-3.308c-2.306-2.201-3.456-5.404-3.456-9.609V36.323c0-4.254,1.141-7.469,3.419-9.646
			s5.395-3.271,9.346-3.271h1.518c3.951,0,7.067,1.094,9.346,3.271s3.419,5.392,3.419,9.646V63.677z M42.934,34.882v20.59
			l14.132-20.59c0-1.571-0.597-2.925-1.784-4.069c-1.193-1.138-2.699-1.707-4.523-1.707h-1.518c-1.824,0-3.333,0.569-4.523,1.707
			C43.528,31.957,42.934,33.311,42.934,34.882z M57.066,65.124V44.608L42.934,65.124c0,1.571,0.594,2.925,1.784,4.062
			c1.19,1.138,2.699,1.707,4.523,1.707h1.518c1.824,0,3.33-0.569,4.523-1.707C56.469,68.049,57.066,66.695,57.066,65.124z"/>
	</g>
</g>
</svg>
